<svg xmlns="http://www.w3.org/2000/svg" viewBox="0 0 256 256">
  <defs>
    <linearGradient id="bg" x1="0" y1="0" x2="0" y2="1">
      <stop offset="0" stop-color="#005691"/>
      <stop offset="1" stop-color="#003d69"/>
    </linearGradient>
  </defs>
  <rect x="10" y="10" width="236" height="236" rx="48" fill="url(#bg)"/>
  <path d="M58 68h140a12 12 0 0 1 12 12v86H46V80a12 12 0 0 1 12-12z" fill="none" stroke="#fff" stroke-width="16" stroke-linejoin="round"/>
  <rect x="76" y="88" width="104" height="60" rx="5" fill="#005691"/>
  <rect x="100" y="102" width="56" height="33" rx="4" fill="none" stroke="#fff" stroke-width="6"/>
  <path d="M100 114h56M128 102v33" stroke="#fff" stroke-width="5"/>
  <path d="M60 166h136l20 18H40z" fill="#fff"/>
  <rect x="40" y="174" width="176" height="31" rx="12" fill="#fff"/>
  <path d="M193 174v46M170 197h46" stroke="#fff" stroke-width="28" stroke-linecap="round"/>
  <path d="M193 174v46M170 197h46" stroke="#EA0016" stroke-width="18" stroke-linecap="round"/>
</svg>
